<?xml version="1.0" encoding="utf-8"?>
<!-- Svg Vector Icons : http://www.onlinewebfonts.com/icon -->
<!DOCTYPE svg PUBLIC "-//W3C//DTD SVG 1.1//EN" "http://www.w3.org/Graphics/SVG/1.1/DTD/svg11.dtd">
<svg version="1.1" xmlns="http://www.w3.org/2000/svg" xmlns:xlink="http://www.w3.org/1999/xlink" x="0px" y="0px" viewBox="0 0 1000 1000" enable-background="new 0 0 1000 1000" xml:space="preserve">
<metadata> Svg Vector Icons : http://www.onlinewebfonts.com/icon </metadata>
<g><g><path d="M427.2,722.9c4.9,27.1,15.7,52.2,31.2,73.8l-213.1,0.8C115.4,797.5,10,692.2,10,562.2c0-123.3,94.9-224.3,215.6-234.3c34.7-86.7,119.3-147.9,218.4-147.9c104.5,0,192.9,68.2,223.7,162.4c13.6-2.4,27.5-3.9,41.8-3.9c116.3,0,212.6,84.4,231.7,195.3c-21.4-10.5-45.1-17-70.1-18.4c-32.5-53.4-90.8-87.2-155.5-87.2c-39,0-75.6,12.3-105.8,33.8c-30.5-39.8-78.5-65.6-132.5-65.6c-92.3,0-167.1,74.8-167.1,167.1C310,638.3,359.3,701.7,427.2,722.9z M860.9,568.1c-7.9,0-15.5,0.8-22.9,2.2c-16.9-51.7-65.4-89.1-122.7-89.1c-30.3,0-58.2,10.5-80.1,28c5.8,17,9.1,35.2,9.1,54.2c0,90.2-71.5,163.6-161,166.8c16.6,52.1,65.4,89.9,123,89.9l254.6-1c71.3,0,129.1-50.5,129.1-121.8C990,625.9,932.2,568.1,860.9,568.1z M413.6,513.5c11.7,0,19.8,2.7,24.9,5.6l4.9-16.6c-5.9-2.9-17.1-6.1-29.8-6.1c-38.6,0-63.5,26.4-63.5,62.8c0,36.2,23.2,60.4,58.9,60.4c15.9,0,28.4-3.9,34-6.8l-3.7-16.1c-6.1,2.7-14.2,5.9-26.4,5.9c-23.5,0-41.1-16.9-41.1-44.3C371.8,533.6,386.5,513.5,413.6,513.5z M434.7,559c0-39.6,25.9-62.8,58.7-62.8c34,0,56.9,24.7,56.9,60.9c0,43.7-30.3,62.8-58.9,62.8C459.4,619.9,434.7,596.4,434.7,559z M456.5,558.3c0,25.9,14.9,45.5,35.9,45.5c20.5,0,35.9-19.3,35.9-46c0-20-10-45.5-35.4-45.5C467.5,512.3,456.5,535.8,456.5,558.3z M565.1,602.8l-8.2,8v6.4h49.5v-8.7h-34.8v-0.2l6.2-5.7c16.3-15.7,26.7-27.3,26.7-41.6c0-11.1-7.1-22.5-23.7-22.5c-8.9,0-16.6,3.3-21.9,7.9l3.3,7.4c3.6-3,9.4-6.5,16.4-6.5c11.6,0,15.4,7.3,15.4,15.1C593.8,573.9,584.9,583.9,565.1,602.8z"/></g><g></g><g></g><g></g><g></g><g></g><g></g><g></g><g></g><g></g><g></g><g></g><g></g><g></g><g></g><g></g></g>
</svg>